<svg width="512" height="512" viewBox="0 0 512 512" fill="none" xmlns="http://www.w3.org/2000/svg">
<path d="M256 459.326C361.033 459.326 446.179 374.18 446.179 269.147C446.179 164.115 361.033 78.9688 256 78.9688C150.967 78.9688 65.8215 164.115 65.8215 269.147C65.8215 374.18 150.967 459.326 256 459.326Z" fill="#1A1A1A"/>
<path d="M256 476.615C141.605 476.615 48.5325 383.543 48.5325 269.148C48.5325 154.752 141.605 61.6802 256 61.6802C370.395 61.6802 463.468 154.752 463.468 269.148C463.468 383.543 370.395 476.615 256 476.615ZM256 96.2581C160.669 96.2581 83.1104 173.816 83.1104 269.148C83.1104 364.479 160.669 442.037 256 442.037C351.331 442.037 428.89 364.479 428.89 269.148C428.89 173.816 351.331 96.2581 256 96.2581Z" fill="#A3ADB7"/>
<path d="M94.8438 276.881H71.642C67.4696 276.881 64.0925 273.504 64.0925 269.332C64.0925 265.159 67.4696 261.782 71.642 261.782H94.8438C99.0162 261.782 102.393 265.159 102.393 269.332C102.393 273.504 99.0162 276.881 94.8438 276.881Z" fill="#A3ADB7"/>
<path d="M417.26 276.881H440.462C444.634 276.881 448.011 273.504 448.011 269.332C448.011 265.159 444.634 261.782 440.462 261.782H417.26C413.088 261.782 409.71 265.159 409.71 269.332C409.71 273.504 413.088 276.881 417.26 276.881Z" fill="#A3ADB7"/>
<path d="M256.058 115.541C251.885 115.541 248.508 112.163 248.508 107.991V84.7893C248.508 80.6169 251.885 77.2397 256.058 77.2397C260.23 77.2397 263.607 80.6169 263.607 84.7893V107.991C263.607 112.163 260.23 115.541 256.058 115.541Z" fill="#A3ADB7"/>
<path d="M256.058 461.412C251.885 461.412 248.508 458.035 248.508 453.863V427.63C248.508 423.457 251.885 420.08 256.058 420.08C260.23 420.08 263.607 423.457 263.607 427.63V453.863C263.607 458.035 260.23 461.412 256.058 461.412Z" fill="#A3ADB7"/>
<path d="M125.699 407.355C123.774 407.355 121.838 406.618 120.362 405.142C117.412 402.203 117.412 397.42 120.362 394.469L138.908 375.924C141.847 372.973 146.642 372.973 149.581 375.924C152.531 378.863 152.531 383.646 149.581 386.597L131.035 405.142C129.572 406.618 127.635 407.355 125.699 407.355Z" fill="#A3ADB7"/>
<path d="M386.405 407.355C388.33 407.355 390.266 406.618 391.741 405.142C394.692 402.203 394.692 397.42 391.741 394.469L373.196 375.924C370.257 372.973 365.462 372.973 362.523 375.924C359.572 378.863 359.572 383.646 362.523 386.597L381.068 405.142C382.532 406.618 384.468 407.355 386.405 407.355Z" fill="#A3ADB7"/>
<path d="M144.244 164.941C142.319 164.941 140.383 164.204 138.908 162.728L120.362 144.183C117.412 141.244 117.412 136.461 120.362 133.51C123.302 130.559 128.096 130.559 131.035 133.51L149.581 152.055C152.531 154.994 152.531 159.778 149.581 162.728C148.117 164.204 146.181 164.941 144.244 164.941Z" fill="#A3ADB7"/>
<path d="M367.86 164.941C369.784 164.941 371.721 164.204 373.196 162.728L391.741 144.183C394.692 141.244 394.692 136.461 391.741 133.51C388.802 130.559 384.007 130.559 381.068 133.51L362.523 152.055C359.572 154.994 359.572 159.778 362.523 162.728C363.987 164.204 365.923 164.941 367.86 164.941Z" fill="#A3ADB7"/>
<path d="M283.967 224.227L292.536 232.796L301.104 241.364L318.296 234.112C328.545 229.789 335.381 220.067 336.301 208.982C336.945 201.203 338.346 192.037 341.292 184.039C333.294 186.985 324.128 188.386 316.349 189.03C305.259 189.95 295.543 196.786 291.219 207.035L283.967 224.227Z" fill="#FFB800"/>
<path d="M190.395 352.105C210.692 350.891 229.374 340.628 241.286 324.145L301.104 241.363L292.536 232.795L283.967 224.227L201.186 284.045C184.703 295.957 174.44 314.638 173.226 334.936C172.647 344.648 180.683 352.684 190.395 352.105Z" fill="#F9F9F9"/>
<path d="M287.822 259.743L265.602 237.522L278.733 224.392C280.225 222.899 282.645 222.903 284.134 224.392L300.953 241.21C302.445 242.703 302.442 245.123 300.953 246.612L287.822 259.743Z" fill="#64707D"/>
<rect x="211.049" y="15" width="89.9026" height="32.2727" rx="9.22078" fill="#A3ADB7"/>
<rect x="238.135" y="47.2725" width="35.7305" height="31.6964" fill="#A3ADB7"/>
</svg>
